Coordinates
version=1
nRows=6
nColumns=34
inDegrees=yes

Units are S.I. units (second, meters, Newtons, ...)
If the header above contains a line with 'inDegrees', this indicates whether rotational values are in degrees (yes) or radians (no).

endheader
time	pelvis_tilt	pelvis_list	pelvis_rotation	pelvis_tx	pelvis_ty	pelvis_tz	hip_flexion_r	hip_adduction_r	hip_rotation_r	knee_angle_r	ankle_angle_r	subtalar_angle_r	mtp_angle_r	hip_flexion_l	hip_adduction_l	hip_rotation_l	knee_angle_l	ankle_angle_l	subtalar_angle_l	mtp_angle_l	lumbar_extension	lumbar_bending	lumbar_rotation	arm_flex_r	arm_add_r	arm_rot_r	elbow_flex_r	pro_sup_r	arm_flex_l	arm_add_l	arm_rot_l	elbow_flex_l	pro_sup_l
      0.00000000	     -1.03420460	      2.54583809	   -155.16490946	      1.98278529	      0.86417064	     -0.25216918	      8.94847850	     14.49528466	     -5.19004268	     12.92067688	      9.84553071	    -17.88653362	      0.00000000	     19.56943393	     12.95170618	      6.26114650	     12.29651979	     11.50601188	      9.74973826	      0.00000000	     -8.97490364	      2.13661699	     -5.33297502	     37.30324967	    -31.14799392	     85.57476499	     43.43778007	     51.91311179	    -11.52728872	     -1.37907473	     27.61051842	     66.19306361	     81.20558069
      0.01666670	      1.87554782	      1.87599816	   -152.37599536	      1.95541662	      0.85513244	     -0.25224126	     10.04297674	     13.86306024	    -10.13461449	     10.12924401	     14.21017083	    -11.85936729	      0.00000000	     22.84373585	     15.92561558	     12.51720523	     14.89827164	      7.23471781	      7.18222414	      0.00000000	     -3.78649528	      0.38572749	     -8.40329611	     36.61770101	    -30.40848295	     83.31705837	     45.42389343	     53.38681278	    -12.96674375	     -3.52037776	     27.77687572	     65.52119670	     81.28584640
      0.03333330	      2.69697618	      0.79975494	   -151.05017405	      1.93780221	      0.83767661	     -0.25762168	     10.54545496	     13.16374764	    -14.19221778	     11.52365649	     17.93364161	     -7.47731168	      0.00000000	     24.05089141	     17.62331803	     14.11015691	     17.32258268	      5.74463730	      5.86078765	      0.00000000	     -3.05267515	     -0.10269325	     -5.13658739	     36.85614472	    -43.07839805	     86.71078346	     81.95388102	     65.39144053	    -10.93111857	     -6.31555397	     27.65396423	     61.67152068	     84.06757909
      0.05000000	      3.38829649	     -0.16391960	   -150.61406063	      1.91937707	      0.83684596	     -0.26430533	     11.86451499	     11.36031207	    -20.55517315	     17.91635434	     25.81617230	      0.81442005	      0.00000000	     25.94372340	     18.96164607	     15.86540228	     22.39843315	      6.32149168	      2.21616698	      0.00000000	     -3.09000895	      0.12340295	     -0.81195070	     52.53383154	    -38.58559442	    140.34629552	    108.26456717	     78.33091151	     -8.95897179	     -8.08864207	     28.70185662	     51.94950714	     87.86940998
      0.06666670	      4.01939059	     -1.52027832	   -151.28371794	      1.90000921	      0.83520048	     -0.27129893	     14.09673238	      7.66203904	    -27.14836684	     29.04748565	     33.49569177	      8.52976441	      0.00000000	     28.27425324	     20.19082251	     16.19753531	     29.00045925	      7.74782076	     -2.29084058	      0.00000000	     -2.98087144	     -2.11535504	     -1.79456783	     52.71111186	    -31.64896966	    151.87693708	    101.99519907	     71.55930198	    -13.43863230	     -6.87219528	     14.45639059	     43.86791417	     89.05039406
      0.08333330	      4.21206540	     -3.08463993	   -152.47249494	      1.88176727	      0.83879884	     -0.27804352	     14.31784299	      3.31982971	    -31.89547382	     38.74001447	     37.47773682	     14.01863171	      0.00000000	     29.47222802	     20.81174979	     15.14895692	     34.47224263	      9.47970863	     -5.22822066	      0.00000000	     -3.07896322	     -4.91628177	     -4.89518819	     48.99945591	    -27.47965171	    146.90811457	     79.75190168	     67.89527725	    -16.74897864	     -7.66376442	     11.41428628	     35.28570916	     89.39060144
